<svg width="640" height="430" viewBox="0 0 640 430" xmlns="http://www.w3.org/2000/svg" role="img" aria-label="Yash Bhardwaj profile terminal">
  <title>~/profile</title>

  <defs>
    <linearGradient id="panelGrad" x1="0" y1="0" x2="0" y2="1">
      <stop offset="0%" stop-color="#0d1117"/>
      <stop offset="100%" stop-color="#0a0d12"/>
    </linearGradient>

    <filter id="panelShadow" x="-20%" y="-20%" width="140%" height="140%">
      <feDropShadow dx="0" dy="16" stdDeviation="20" flood-color="#000000" flood-opacity="0.5"/>
    </filter>
  </defs>

  <style>
    text{ font-family: ui-monospace, "SFMono-Regular", Menlo, Consolas, "Liberation Mono", monospace; }

    .fade{ opacity:0; animation: fadeUp .55s ease forwards; }
    @keyframes fadeUp{
      from{ opacity:0; transform:translateY(6px); }
      to{ opacity:1; transform:translateY(0); }
    }
    .d0{ animation-delay:.15s; }
    .d1{ animation-delay:.60s; }
    .d2{ animation-delay:1.05s; }
    .d3{ animation-delay:1.55s; }
    .d4{ animation-delay:2.05s; }

    .cursor{ animation: blink 1s step-end infinite; animation-delay:2.4s; }
    @keyframes blink{ 50%{ opacity:0; } }

    .breathe{ animation: breathe 6s ease-in-out infinite; }
    @keyframes breathe{
      0%,100%{ stroke-opacity:0.10; }
      50%{ stroke-opacity:0.22; }
    }

    .icon-link:hover path, .icon-link:hover rect{ opacity:1; }
    .icon-link path, .icon-link rect{ opacity:0.82; transition: opacity .15s ease; }
  </style>

  <!-- panel -->
  <g filter="url(#panelShadow)">
    <rect x="8" y="8" width="624" height="414" rx="14" fill="url(#panelGrad)"/>
    <rect x="8" y="8" width="624" height="414" rx="14" fill="none" stroke="#e6edf3" stroke-width="1" class="breathe"/>
  </g>

  <!-- titlebar -->
  <line x1="8" y1="64" x2="632" y2="64" stroke="#ffffff" stroke-opacity="0.08"/>
  <circle cx="32" cy="32" r="7" fill="#ff5f56"/>
  <circle cx="58" cy="32" r="7" fill="#ffbd2e"/>
  <circle cx="84" cy="32" r="7" fill="#27c93f"/>
  <text x="320" y="38" text-anchor="middle" font-size="15" fill="#e6edf3">~/profile</text>

  <!-- social icons (decorative in this embed — see notes for clickable badge row) -->
  <line x1="508" y1="18" x2="508" y2="46" stroke="#ffffff" stroke-opacity="0.15"/>

  <a href="https://linkedin.com/in/itsyashbhardwaj" class="icon-link">
    <g transform="translate(516,22) scale(0.8333)">
      <path fill="#e6edf3" d="M20.447 20.452h-3.554v-5.569c0-1.328-.027-3.037-1.852-3.037-1.853 0-2.136 1.446-2.136 2.939v5.667H9.351V9h3.414v1.561h.046c.477-.9 1.637-1.85 3.37-1.85 3.601 0 4.267 2.37 4.267 5.455v6.286zM5.337 7.433c-1.144 0-2.063-.926-2.063-2.065 0-1.138.92-2.063 2.063-2.063 1.14 0 2.064.925 2.064 2.063 0 1.139-.925 2.065-2.064 2.065zm1.782 13.019H3.555V9h3.564v11.452zM22.225 0H1.771C.792 0 0 .774 0 1.729v20.542C0 23.227.792 24 1.771 24h20.451C23.2 24 24 23.227 24 22.271V1.729C24 .774 23.2 0 22.222 0h.003z"/>
    </g>
  </a>

  <line x1="546" y1="18" x2="546" y2="46" stroke="#ffffff" stroke-opacity="0.15"/>

  <a href="mailto:byash0712@gmail.com" class="icon-link">
    <path d="M556 22 h20 v20 h-20 Z M556 22 l10 10 l10 -10" fill="none" stroke="#e6edf3" stroke-width="1.4" stroke-linejoin="round"/>
  </a>

  <line x1="586" y1="18" x2="586" y2="46" stroke="#ffffff" stroke-opacity="0.15"/>

  <a href="https://discord.com/users/byashx" class="icon-link">
    <g transform="translate(596,23) scale(0.75)">
      <path fill="#e6edf3" d="M20.317 4.3698a19.7913 19.7913 0 00-4.8851-1.5152.0741.0741 0 00-.0785.0371c-.211.3753-.4447.8648-.6083 1.2495-1.8447-.2762-3.68-.2762-5.4868 0-.1636-.3933-.4058-.8742-.6177-1.2495a.077.077 0 00-.0785-.0371 19.7363 19.7363 0 00-4.8852 1.515.0699.0699 0 00-.0321.0277C.5334 9.0458-.319 13.5799.0992 18.0578a.0824.0824 0 00.0312.0561c2.0528 1.5076 4.0413 2.4228 5.9929 3.0294a.0777.0777 0 00.0842-.0276c.4616-.6304.8731-1.2952 1.226-1.9942a.076.076 0 00-.0416-.1057c-.6528-.2476-1.2743-.5495-1.8722-.8923a.077.077 0 01-.0076-.1277c.1258-.0943.2517-.1923.3718-.2914a.0743.0743 0 01.0776-.0105c3.9278 1.7933 8.18 1.7933 12.0614 0a.0739.0739 0 01.0785.0095c.1202.099.246.1981.3728.2924a.077.077 0 01-.0066.1276 12.2986 12.2986 0 01-1.873.8914.0766.0766 0 00-.0407.1067c.3604.698.7719 1.3628 1.225 1.9932a.076.076 0 00.0842.0286c1.961-.6067 3.9495-1.522 6.0023-3.0294a.077.077 0 00.0313-.0552c.5004-5.177-.8382-9.6739-3.5485-13.6604a.061.061 0 00-.0312-.0286zM8.02 15.3312c-1.1825 0-2.1569-1.0857-2.1569-2.419 0-1.3332.9555-2.4189 2.157-2.4189 1.2108 0 2.1757 1.0952 2.1568 2.419 0 1.3332-.9555 2.4189-2.1569 2.4189zm7.9748 0c-1.1825 0-2.1569-1.0857-2.1569-2.419 0-1.3332.9554-2.4189 2.1569-2.4189 1.2108 0 2.1757 1.0952 2.1568 2.419 0 1.3332-.946 2.4189-2.1568 2.4189z"/>
    </g>
  </a>

  <line x1="624" y1="18" x2="624" y2="46" stroke="#ffffff" stroke-opacity="0.15"/>

  <!-- command line -->
  <text x="24" y="96" font-size="14">
    <tspan fill="#3fb950">yash</tspan><tspan fill="#8b949e">@</tspan><tspan fill="#58a6ff">github</tspan><tspan fill="#8b949e">:</tspan><tspan fill="#8b949e">~</tspan><tspan fill="#8b949e">$ </tspan><tspan fill="#e6edf3" class="fade d0">cat ~/.profile</tspan>
  </text>

  <!-- name / role / focus -->
  <g class="fade d1">
    <text x="24" y="128" font-size="14" font-weight="700" fill="#e6edf3">Name</text>
    <text x="108" y="128" font-size="14" fill="#8b949e">:</text>
    <text x="124" y="128" font-size="14" fill="#e6edf3">Yash Bhardwaj</text>

    <text x="24" y="152" font-size="14" font-weight="700" fill="#e6edf3">Role</text>
    <text x="108" y="152" font-size="14" fill="#8b949e">:</text>
    <text x="124" y="152" font-size="14" fill="#e6edf3">Software Engineer</text>

    <text x="24" y="176" font-size="14" font-weight="700" fill="#e6edf3">Focus</text>
    <text x="108" y="176" font-size="14" fill="#8b949e">:</text>
    <text x="124" y="176" font-size="14" fill="#e6edf3">AI &#8226; Backend &#8226; Distributed Systems</text>
  </g>

  <!-- currently -->
  <g class="fade d2">
    <text x="24" y="214" font-size="14" font-weight="700" fill="#e6edf3">Currently</text>
    <text x="40" y="238" font-size="14"><tspan fill="#8b949e">- </tspan><tspan fill="#e6edf3">Building production-grade software</tspan></text>
    <text x="40" y="262" font-size="14"><tspan fill="#8b949e">- </tspan><tspan fill="#e6edf3">Contributing to open source</tspan></text>
    <text x="40" y="286" font-size="14"><tspan fill="#8b949e">- </tspan><tspan fill="#e6edf3">Learning system design</tspan></text>
  </g>

  <!-- status -->
  <g class="fade d3">
    <text x="24" y="324" font-size="14" font-weight="700" fill="#e6edf3">Status</text>
    <text x="40" y="348" font-size="14"><tspan fill="#8b949e">&gt; </tspan><tspan fill="#e6edf3">shipping code</tspan><tspan fill="#8b949e"> &gt; </tspan><tspan fill="#e6edf3">collecting certificates</tspan></text>
  </g>

  <!-- final prompt -->
  <g class="fade d4">
    <text x="24" y="392" font-size="14"><tspan fill="#3fb950">yash</tspan><tspan fill="#8b949e">@</tspan><tspan fill="#58a6ff">github</tspan><tspan fill="#8b949e">:</tspan><tspan fill="#8b949e">~</tspan><tspan fill="#8b949e">$ </tspan></text>
    <rect x="146" y="380" width="8" height="15" fill="#e6edf3" class="cursor"/>
  </g>
</svg>
